<svg width="512" height="512" viewBox="0 0 512 512" fill="none" xmlns="http://www.w3.org/2000/svg">
<defs>
<linearGradient id="paint0_linear" x1="256" y1="0" x2="256" y2="512" gradientUnits="userSpaceOnUse">
<stop stop-color="#6B11F4"/>
<stop offset="1" stop-color="#4C0BB3"/>
</linearGradient>
<filter id="glow" x="-20%" y="-20%" width="140%" height="140%">
<feGaussianBlur stdDeviation="10" result="blur"/>
<feComposite in="SourceGraphic" in2="blur" operator="over"/>
</filter>
</defs>
<path d="M256 32L55 108V246C55 348.5 141.5 444.5 256 480C370.5 444.5 457 348.5 457 246V108L256 32Z" fill="url(#paint0_linear)" stroke="#A78BFA" stroke-width="10"/>
<path d="M256 120C190 120 160 160 160 190H200C200 175 215 155 256 155C295 155 310 175 310 195C310 235 260 245 220 265C170 290 150 320 150 360H190C190 335 210 315 250 295C300 270 320 240 320 195C320 150 290 120 256 120ZM256 400C242.193 400 231 388.807 231 375C231 361.193 242.193 350 256 350C269.807 350 281 361.193 281 375C281 388.807 269.807 400 256 400Z" fill="white"/>
</svg>
